<?xml version="1.0" encoding="utf-8"?>
<svg xmlns="http://www.w3.org/2000/svg" viewBox="0 0 204.85 47.1"><defs><style>.cls-1{fill:#11294b;}</style></defs><title>PRI staff</title><g id="Layer_2" data-name="Layer 2"><g id="Layer_1-2" data-name="Layer 1"><path class="cls-1" d="M9.54,29.88h-2v16.5H0V.78H9.24c6.66,0,10,3.48,10,14.34C19.2,26.58,15,29.88,9.54,29.88Zm-1-23.22H7.5V24H8.64c2.1,0,3.24-2.1,3.24-8.94C11.88,8.7,10.86,6.66,8.58,6.66Z"/><path class="cls-1" d="M41.34,24.48v.24c4.26,1.08,5,4.32,5,10.32v3.48c0,5.34.18,6.54.66,7.86H39.6a5,5,0,0,1-.54-2.4c-.12-2.76-.12-5.46-.18-8.46-.12-6.78-1-7.86-2.28-7.86H35.22V46.38h-7.5V.78h9.72C43.68.78,47,4.26,47,12.66,47,19.5,45.72,22.74,41.34,24.48ZM36.54,6.66H35.22V21.72h1.26c2.1,0,3.24-1.74,3.24-7.86C39.72,7.92,38.52,6.66,36.54,6.66Z"/><path class="cls-1" d="M63.17,46.38h-7.5V.78h7.5Z"/><path class="cls-1" d="M104.08,36.48c0,7.26-3.35,10.62-9,10.62-6,0-8.4-3.6-8.4-10.2a33.67,33.67,0,0,1,.54-6.18l5.46.48a32.92,32.92,0,0,0-.42,5c0,3.84.6,5.16,2.34,5.16,1.56,0,2.1-1.26,2.1-4.08V36.06c0-3.48-.78-6.66-4.74-11.46C88.07,20,86.63,16.26,86.63,11v-.72C86.63,4.38,88.79,0,95.45,0c6.36,0,8.28,4,8.28,10.2a40,40,0,0,1-.42,6.12l-5.58-.48a28.74,28.74,0,0,0,.36-5c0-4-.54-5.22-2.1-5.22s-2,1.2-2,3.84v1c0,2.7.84,5.52,3.72,9.18,4,5,6.35,10.14,6.35,16Z"/><path class="cls-1" d="M131.69,6.66h-6.3V46.38h-7.5V6.66h-6.24V.78h20Z"/><path class="cls-1" d="M156.9,46.38h-7.62l-.6-6.42h-5.1l-.6,6.42h-6.24L142.38.78h8.4ZM148,34l-1.74-23H146l-1.86,23Z"/><path class="cls-1" d="M180.78,6.66h-8.16V20.94h6.78v5.82h-6.78V46.38h-7.5V.78h15.66Z"/><path class="cls-1" d="M204.85,6.66h-8.16V20.94h6.78v5.82h-6.78V46.38h-7.5V.78h15.66Z"/></g></g></svg>